<svg width="148" height="44" viewBox="0 0 148 44" fill="none" xmlns="http://www.w3.org/2000/svg">
<g clip-path="url(#clip0)">
<path d="M148 39.623C148 42.0419 146.11 44 143.775 44H4.22539C1.89031 44 0 42.0419 0 39.623V4.37696C0 1.95812 1.89031 0 4.22539 0H143.775C146.11 0 148 1.95812 148 4.37696V39.623Z" fill="black"/>
<path d="M29.9269 22.6576C29.9269 19.1376 32.7772 17.3776 32.9965 17.2676C31.352 14.8476 28.7209 14.5176 27.8439 14.5176C25.6513 14.2976 23.5683 15.8376 22.472 15.8376C21.3757 15.8376 19.6217 14.5176 17.8676 14.6276C15.5654 14.6276 13.3728 16.0576 12.1669 18.1476C9.64537 22.4376 11.5091 28.8176 13.9209 32.3376C15.1269 34.0976 16.552 35.9676 18.3061 35.8576C20.0602 35.7476 20.718 34.7576 22.9106 34.7576C24.9935 34.7576 25.6513 35.8576 27.515 35.8576C29.3787 35.8576 30.5846 34.0976 31.7906 32.4476C33.2157 30.4676 33.7639 28.5976 33.7639 28.4876C33.6543 28.2676 30.0365 26.8376 29.9269 22.6576Z" fill="white"/>
<path d="M26.4186 12.2092C27.4053 10.9992 28.0631 9.34922 27.8438 7.69922C26.4186 7.80922 24.7742 8.68922 23.6779 9.78922C22.8008 10.7792 22.0334 12.5392 22.2527 14.0792C23.8971 14.2992 25.4319 13.4192 26.4186 12.2092Z" fill="white"/>
<path d="M56.1301 34.6495H53.6086L52.293 30.3595H47.579L46.2634 34.6495H43.8516L48.5656 20.0195H51.416L56.1301 34.6495ZM51.9642 28.5995L50.7582 24.7495C50.6486 24.3095 50.4293 23.4295 49.9908 21.9995C49.8812 22.6595 49.6619 23.5395 49.333 24.7495L48.0175 28.5995H51.9642Z" fill="white"/>
<path d="M68.3005 29.2611C68.3005 31.0211 67.862 32.4511 66.8753 33.5511C65.9983 34.4311 64.902 34.9811 63.6961 34.9811C62.2709 34.9811 61.2842 34.4311 60.7361 33.4411V39.0511H58.4339V27.6111C58.4339 26.5111 58.4338 25.3011 58.3242 24.0911H60.4072L60.5168 25.7411C61.2842 24.5311 62.4901 23.8711 64.025 23.8711C65.2309 23.8711 66.3272 24.3111 67.0946 25.3011C67.862 26.2911 68.3005 27.6111 68.3005 29.2611ZM65.8887 29.3711C65.8887 28.3811 65.6694 27.5011 65.2309 26.8411C64.6827 26.1811 64.025 25.8511 63.1479 25.8511C62.5998 25.8511 62.0516 26.0711 61.6131 26.4011C61.1746 26.8411 60.8457 27.2811 60.7361 27.9411C60.6264 28.2711 60.6264 28.4911 60.6264 28.6011V30.3611C60.6264 31.1311 60.8457 31.7911 61.2842 32.3411C61.7227 32.8911 62.3805 33.1111 63.1479 33.1111C64.025 33.1111 64.6827 32.7811 65.2309 32.1211C65.6694 31.3511 65.8887 30.4711 65.8887 29.3711Z" fill="white"/>
<path d="M80.3591 29.2611C80.3591 31.0211 79.9206 32.4511 78.9339 33.5511C78.0569 34.4311 76.9606 34.9811 75.7547 34.9811C74.3295 34.9811 73.3428 34.4311 72.7947 33.4411V39.0511H70.4924V27.6111C70.4924 26.5111 70.4924 25.3011 70.3828 24.0911H72.4658L72.5754 25.7411C73.3428 24.5311 74.5487 23.8711 76.0836 23.8711C77.2895 23.8711 78.3858 24.3111 79.1532 25.3011C79.9206 26.2911 80.3591 27.6111 80.3591 29.2611ZM77.9473 29.3711C77.9473 28.3811 77.728 27.5011 77.2895 26.8411C76.7413 26.1811 76.0836 25.8511 75.2065 25.8511C74.6584 25.8511 74.1102 26.0711 73.6717 26.4011C73.2332 26.8411 72.9043 27.2811 72.7947 27.9411C72.685 28.2711 72.685 28.4911 72.685 28.6011V30.3611C72.685 31.1311 72.9043 31.7911 73.3428 32.3411C73.7813 32.8911 74.4391 33.1111 75.2065 33.1111C76.0836 33.1111 76.7413 32.7811 77.2895 32.1211C77.728 31.3511 77.9473 30.4711 77.9473 29.3711Z" fill="white"/>
<path d="M93.8412 30.5795C93.8412 31.7895 93.4027 32.8895 92.5256 33.6595C91.539 34.5395 90.2234 34.9795 88.579 34.9795C87.0441 34.9795 85.7286 34.6495 84.8516 34.0995L85.3997 32.1195C86.3864 32.7795 87.5923 33.1095 88.7982 33.1095C89.6753 33.1095 90.333 32.8895 90.8812 32.5595C91.3197 32.1195 91.6486 31.6795 91.6486 30.9095C91.6486 30.3595 91.4293 29.8095 90.9908 29.3695C90.5523 28.9295 89.8945 28.5995 89.0175 28.2695C86.496 27.2795 85.1804 25.9595 85.1804 24.0895C85.1804 22.8795 85.619 21.8895 86.496 21.1195C87.373 20.3495 88.579 20.0195 90.1138 20.0195C91.4293 20.0195 92.5256 20.2395 93.4027 20.6795L92.7449 22.4395C91.8679 21.9995 90.9908 21.7795 90.0042 21.7795C89.1271 21.7795 88.579 21.9995 88.0308 22.4395C87.5923 22.7695 87.4827 23.2095 87.4827 23.7595C87.4827 24.3095 87.7019 24.8595 88.1405 25.1895C88.579 25.5195 89.2367 25.9595 90.2234 26.2895C91.4293 26.8395 92.416 27.3895 92.9642 28.0495C93.6219 28.7095 93.8412 29.5895 93.8412 30.5795Z" fill="white"/>
<path d="M101.628 25.8492H99.1068V31.0192C99.1068 32.3392 99.5453 32.9992 100.422 32.9992C100.861 32.9992 101.19 32.9992 101.409 32.8892L101.519 34.6492C101.08 34.8692 100.422 34.8692 99.655 34.8692C98.7779 34.8692 98.0105 34.5392 97.4624 33.9892C96.9142 33.4392 96.695 32.4492 96.695 31.1292V25.8492H95.1602V24.0892H96.695V22.1092L98.9972 21.4492V24.0892H101.519C101.628 24.0892 101.628 25.8492 101.628 25.8492Z" fill="white"/>
<path d="M113.247 29.2611C113.247 30.9111 112.808 32.2311 111.822 33.2211C110.835 34.3211 109.519 34.8711 107.985 34.8711C106.45 34.8711 105.244 34.3211 104.257 33.3311C103.271 32.3411 102.832 31.0211 102.832 29.4811C102.832 27.8311 103.271 26.5111 104.257 25.4111C105.244 24.4211 106.45 23.8711 108.094 23.8711C109.629 23.8711 110.835 24.4211 111.822 25.4111C112.808 26.4011 113.247 27.7211 113.247 29.2611ZM110.835 29.3711C110.835 28.3811 110.616 27.6111 110.177 26.8411C109.739 25.9611 108.971 25.6311 108.094 25.6311C107.108 25.6311 106.45 26.0711 105.902 26.8411C105.463 27.5011 105.244 28.3811 105.244 29.3711C105.244 30.3611 105.463 31.1311 105.902 31.9011C106.45 32.7811 107.108 33.1111 107.985 33.1111C108.862 33.1111 109.629 32.6711 110.068 31.7911C110.616 31.1311 110.835 30.3611 110.835 29.3711Z" fill="white"/>
<path d="M120.81 26.1811C120.591 26.1811 120.371 26.0711 120.042 26.0711C119.165 26.0711 118.617 26.4011 118.179 27.0611C117.74 27.6111 117.631 28.2711 117.631 29.1511V34.6511H115.328V27.3911C115.328 26.1811 115.328 25.0811 115.219 24.0911H117.302L117.411 26.0711H117.521C117.74 25.4111 118.179 24.8611 118.727 24.4211C119.275 24.0911 119.823 23.8711 120.371 23.8711C120.591 23.8711 120.81 23.8711 120.919 23.8711C120.81 23.9811 120.81 26.1811 120.81 26.1811Z" fill="white"/>
<path d="M131.334 28.9298C131.334 29.3698 131.334 29.6998 131.225 30.0298H124.208C124.208 31.0198 124.537 31.8998 125.195 32.4498C125.743 32.8898 126.511 33.2198 127.497 33.2198C128.484 33.2198 129.471 32.9998 130.348 32.6698L130.677 34.3198C129.69 34.7598 128.484 34.9798 127.168 34.9798C125.524 34.9798 124.208 34.5398 123.331 33.5498C122.454 32.5598 121.906 31.3498 121.906 29.6998C121.906 28.1598 122.345 26.7298 123.222 25.7398C124.099 24.6398 125.305 24.0898 126.949 24.0898C128.484 24.0898 129.58 24.6398 130.348 25.7398C131.006 26.3998 131.334 27.6098 131.334 28.9298ZM129.032 28.2698C129.032 27.6098 128.923 26.9498 128.594 26.5098C128.155 25.8498 127.607 25.5198 126.73 25.5198C125.963 25.5198 125.305 25.8498 124.866 26.5098C124.428 27.0598 124.208 27.6098 124.208 28.3798L129.032 28.2698Z" fill="white"/>
<path d="M46.043 7.04031C46.4815 6.93031 47.2489 6.82031 47.9067 6.82031C48.8933 6.82031 49.5511 7.04031 50.0993 7.37031C50.5378 7.70031 50.757 8.14031 50.757 8.80031C50.757 9.57031 50.2089 10.2303 49.4415 10.5603C50.2089 10.7803 51.0859 11.3303 51.0859 12.5403C51.0859 13.2003 50.8667 13.7503 50.4282 14.0803C49.88 14.6303 49.003 14.8503 47.6874 14.8503C47.0296 14.8503 46.4815 14.8503 46.1526 14.7403L46.043 7.04031ZM47.0296 10.3403H47.9067C49.003 10.3403 49.6608 9.79031 49.6608 9.02031C49.6608 8.14031 49.003 7.70031 47.9067 7.70031C47.4682 7.70031 47.1393 7.70031 47.0296 7.81031V10.3403ZM47.0296 14.1903C47.2489 14.1903 47.5778 14.1903 47.9067 14.1903C49.003 14.1903 49.9896 13.7503 49.9896 12.6503C49.9896 11.5503 49.1126 11.1103 47.9067 11.1103H47.0296V14.1903Z" fill="white"/>
<path d="M55.4693 14.9589L55.3597 14.1889C55.0308 14.6289 54.4827 15.0689 53.6056 15.0689C52.3997 15.0689 51.8516 14.2989 51.8516 13.4189C51.8516 11.9889 53.0575 11.3289 55.2501 11.3289V11.2189C55.2501 10.7789 55.1404 9.89891 53.9345 9.89891C53.3864 9.89891 52.8382 10.1189 52.3997 10.3389L52.1805 9.67891C52.619 9.34891 53.3864 9.12891 54.0442 9.12891C55.7982 9.12891 56.2367 10.3389 56.2367 11.4389V13.5289C56.2367 14.0789 56.2367 14.5189 56.3464 14.8489H55.4693V14.9589ZM55.3597 11.9889C54.2634 11.9889 52.9479 12.2089 52.9479 13.3089C52.9479 13.9689 53.3864 14.2989 53.9345 14.2989C54.7019 14.2989 55.1404 13.8589 55.3597 13.3089C55.3597 13.1989 55.4693 13.0889 55.4693 12.9789L55.3597 11.9889Z" fill="white"/>
<path d="M59.1984 7.58969C59.1984 7.91969 58.9791 8.24969 58.5406 8.24969C58.2117 8.24969 57.8828 7.91969 57.8828 7.58969C57.8828 7.25969 58.1021 6.92969 58.5406 6.92969C58.8695 6.92969 59.1984 7.25969 59.1984 7.58969ZM57.9924 14.9597V9.23969H59.0887V14.9597H57.9924Z" fill="white"/>
<path d="M61.2809 9.23891L62.0483 10.4489C62.2676 10.7789 62.4868 11.1089 62.5965 11.3289C62.8157 10.9989 62.9254 10.6689 63.1446 10.3389L63.912 9.12891H65.0083L63.035 11.8789L65.0083 14.8489H63.8024L62.9254 13.5289C62.7061 13.1989 62.4868 12.8689 62.2676 12.5389C62.0483 12.8689 61.8291 13.1989 61.7194 13.5289L60.8424 14.8489H59.7461L61.7194 11.9889L59.7461 9.23891H61.2809Z" fill="white"/>
<path d="M69.3951 14.9589L69.2855 14.1889C68.9566 14.6289 68.4085 15.0689 67.5314 15.0689C66.3255 15.0689 65.7773 14.2989 65.7773 13.4189C65.7773 11.9889 66.9833 11.3289 69.1759 11.3289V11.2189C69.1759 10.6689 69.0662 9.89891 67.8603 9.89891C67.3122 9.89891 66.764 10.1189 66.3255 10.3389L66.1062 9.67891C66.5448 9.34891 67.3122 9.12891 67.9699 9.12891C69.724 9.12891 70.1625 10.3389 70.1625 11.4389V13.5289C70.1625 14.0789 70.1625 14.5189 70.2722 14.8489H69.3951V14.9589ZM69.1759 11.9889C68.0796 11.9889 66.764 12.2089 66.764 13.3089C66.764 13.9689 67.2025 14.2989 67.7507 14.2989C68.5181 14.2989 68.9566 13.8589 69.1759 13.3089C69.1759 13.1989 69.2855 13.0889 69.2855 12.9789V11.9889H69.1759Z" fill="white"/>
<path d="M71.9141 10.9989C71.9141 10.3389 71.9141 9.78891 71.9141 9.23891H72.7911V10.3389C73.0104 9.56891 73.6681 9.12891 74.3259 9.12891C74.4356 9.12891 74.5452 9.12891 74.6548 9.12891V10.1189C74.5452 10.1189 74.4356 10.1189 74.3259 10.1189C73.5585 10.1189 73.12 10.6689 72.9007 11.4389C72.9007 11.5489 72.9007 11.7689 72.9007 11.8789V14.9589H71.9141V10.9989Z" fill="white"/>
<path d="M78.2734 10.7789C78.2734 10.2289 78.2734 9.67891 78.2734 9.23891H79.1505L79.2601 10.2289C79.589 9.67891 80.2468 9.12891 81.1238 9.12891C81.8912 9.12891 83.0971 9.56891 83.0971 11.5489V14.9589H82.1105V11.6589C82.1105 10.7789 81.7816 10.0089 80.7949 10.0089C80.1371 10.0089 79.589 10.4489 79.3697 11.1089C79.3697 11.2189 79.2601 11.4389 79.2601 11.5489V14.9589H78.2734V10.7789Z" fill="white"/>
<path d="M87.9225 14.9589L87.8128 14.1889C87.4839 14.6289 86.9358 15.0689 86.0588 15.0689C84.8528 15.0689 84.3047 14.2989 84.3047 13.4189C84.3047 11.9889 85.5106 11.3289 87.7032 11.3289V11.2189C87.7032 10.6689 87.5936 9.89891 86.3877 9.89891C85.8395 9.89891 85.2914 10.1189 84.8528 10.3389L84.6336 9.67891C85.0721 9.34891 85.8395 9.12891 86.4973 9.12891C88.2514 9.12891 88.6899 10.3389 88.6899 11.4389V13.5289C88.6899 14.0789 88.6899 14.5189 88.7995 14.8489H87.9225V14.9589ZM87.7032 11.9889C86.6069 11.9889 85.2914 12.2089 85.2914 13.3089C85.2914 13.9689 85.7299 14.2989 86.278 14.2989C87.0454 14.2989 87.4839 13.8589 87.7032 13.3089C87.7032 13.1989 87.8128 13.0889 87.8128 12.9789V11.9889H87.7032Z" fill="white"/>
</g>
<defs>
<clipPath id="clip0">
<rect width="148" height="44" fill="white"/>
</clipPath>
</defs>
</svg>
