<svg width="148" height="44" viewBox="0 0 148 44" fill="none" xmlns="http://www.w3.org/2000/svg">
<g clip-path="url(#clip0)">
<path d="M142.519 43.9375H5.48148C2.46667 43.9375 0 41.4625 0 38.4375V5.4375C0 2.4125 2.46667 -0.0625 5.48148 -0.0625H142.519C145.533 -0.0625 148 2.4125 148 5.4375V38.4375C148 41.4625 145.533 43.9375 142.519 43.9375Z" fill="black"/>
<path d="M73.506 24.0484C70.9095 24.0484 68.8597 25.9555 68.8597 28.68C68.8597 31.4045 70.9095 33.3117 73.506 33.3117C76.1024 33.3117 78.1523 31.4045 78.1523 28.68C78.1523 25.9555 76.1024 24.0484 73.506 24.0484ZM73.506 31.5407C72.1394 31.5407 70.9095 30.3147 70.9095 28.68C70.9095 27.0453 72.1394 25.8193 73.506 25.8193C74.8725 25.8193 76.1024 26.9091 76.1024 28.68C76.1024 30.3147 74.8725 31.5407 73.506 31.5407ZM63.3934 24.0484C60.7969 24.0484 58.7471 25.9555 58.7471 28.68C58.7471 31.4045 60.7969 33.3117 63.3934 33.3117C65.9899 33.3117 68.0397 31.4045 68.0397 28.68C68.0397 25.9555 65.8532 24.0484 63.3934 24.0484ZM63.3934 31.5407C62.0268 31.5407 60.7969 30.3147 60.7969 28.68C60.7969 27.0453 62.0268 25.8193 63.3934 25.8193C64.76 25.8193 65.9899 26.9091 65.9899 28.68C65.9899 30.3147 64.76 31.5407 63.3934 31.5407ZM51.231 25.4106V27.3178H56.014C55.8773 28.4076 55.4674 29.2249 54.9207 29.7698C54.2374 30.4509 53.1442 31.2683 51.231 31.2683C48.3612 31.2683 46.0381 28.9525 46.0381 26.0917C46.0381 23.231 48.3612 20.9152 51.231 20.9152C52.7342 20.9152 53.9641 21.4601 54.7841 22.2774L56.1506 20.9152C54.9207 19.8254 53.4175 18.8718 51.231 18.8718C47.268 18.8718 43.8516 22.1412 43.8516 26.0917C43.8516 30.0423 47.1313 33.3117 51.231 33.3117C53.4175 33.3117 55.0574 32.6306 56.2873 31.2683C57.6539 29.906 57.9272 28.1351 57.9272 26.6366C57.9272 26.228 57.9272 25.8193 57.7905 25.4106C57.9272 25.4106 51.231 25.4106 51.231 25.4106ZM100.701 27.0453C100.291 25.9555 99.1974 24.0484 96.7375 24.0484C94.2777 24.0484 92.3645 25.9555 92.3645 28.68C92.3645 31.2683 94.2777 33.3117 97.0109 33.3117C99.1974 33.3117 100.427 31.9494 100.837 31.2683L99.1974 30.1785C98.6507 30.9958 97.9674 31.4045 96.8742 31.4045C95.7809 31.4045 95.0977 30.9958 94.6877 30.0423L100.974 27.454C100.974 27.5902 100.701 27.0453 100.701 27.0453ZM94.4144 28.5438C94.4144 26.7729 95.7809 25.8193 96.8742 25.8193C97.6941 25.8193 98.3774 26.228 98.6507 26.7729C98.5141 26.7729 94.4144 28.5438 94.4144 28.5438ZM89.3581 33.0392H91.4079V19.4167H89.3581V33.0392ZM86.0784 25.1382C85.5317 24.5933 84.7118 24.0484 83.6185 24.0484C81.2954 24.0484 79.1089 26.0917 79.1089 28.68C79.1089 31.2683 81.2954 33.3117 83.6185 33.3117C84.7118 33.3117 85.6684 32.7668 86.0784 32.2219H86.215V32.903C86.215 34.6739 85.2584 35.6275 83.7552 35.6275C82.5253 35.6275 81.7054 34.6739 81.432 33.9928L79.6555 34.6739C80.2021 35.9 81.5687 37.3984 83.7552 37.3984C86.215 37.3984 88.1282 36.0362 88.1282 32.6306V24.3208H86.215L86.0784 25.1382ZM83.6185 31.5407C82.252 31.5407 81.0221 30.3147 81.0221 28.68C81.0221 27.0453 82.252 25.8193 83.6185 25.8193C84.9851 25.8193 86.0784 27.0453 86.0784 28.68C86.215 30.3147 85.1218 31.5407 83.6185 31.5407ZM110.267 19.4167H105.347V33.0392H107.397V27.8627H110.267C112.59 27.8627 114.776 26.228 114.776 23.6397C114.776 21.0514 112.59 19.4167 110.267 19.4167ZM110.403 25.9555H107.533V21.3238H110.403C111.906 21.3238 112.863 22.5499 112.863 23.6397C112.726 24.7295 111.906 25.9555 110.403 25.9555ZM122.976 24.0484C121.472 24.0484 119.969 24.7295 119.286 26.0917L121.062 26.9091C121.472 26.0917 122.156 25.9555 122.976 25.9555C124.069 25.9555 125.162 26.6366 125.162 27.7264V27.8627C124.752 27.5902 124.069 27.3178 122.976 27.3178C121.062 27.3178 119.013 28.4076 119.013 30.3147C119.013 32.0856 120.652 33.3117 122.429 33.3117C123.795 33.3117 124.615 32.6306 125.025 31.9494H125.162V33.0392H127.075V27.8627C127.075 25.4106 125.299 24.0484 122.976 24.0484ZM122.702 31.5407C122.019 31.5407 121.062 31.2683 121.062 30.4509C121.062 29.3611 122.156 28.9525 123.249 28.9525C124.205 28.9525 124.615 29.0887 125.162 29.3611C125.025 30.5872 123.932 31.5407 122.702 31.5407ZM134.318 24.3208L131.995 30.1785H131.858L129.398 24.3208H127.212L130.902 32.6306L128.852 37.126H131.038L136.641 24.3208H134.318ZM115.869 33.0392H117.919V19.4167H115.869V33.0392Z" fill="white"/>
<path d="M11.2615 8.51665C10.9882 8.7891 10.7148 9.334 10.7148 10.0151V34.127C10.7148 34.8081 10.8515 35.353 11.2615 35.6255L11.3981 35.7617L24.9271 22.2754V22.003L11.2615 8.51665Z" fill="url(#paint0_linear)"/>
<path d="M29.4354 26.7734L24.9258 22.278V22.0055L29.4354 17.5101H29.5721L34.9017 20.5071C36.4049 21.3244 36.4049 22.8229 34.9017 23.6403L29.4354 26.7734C29.4354 26.7734 29.5721 26.7734 29.4354 26.7734Z" fill="url(#paint1_linear)"/>
<path d="M29.5737 26.7723L24.9273 22.1407L11.2617 35.7632C11.8083 36.3081 12.6283 36.3081 13.5849 35.7632L29.5737 26.7723Z" fill="url(#paint2_linear)"/>
<path d="M29.5737 17.5095L13.5849 8.51858C12.6283 7.97368 11.8083 8.10991 11.2617 8.65481L24.9273 22.2773L29.5737 17.5095Z" fill="url(#paint3_linear)"/>
<path d="M46.043 7.04031C46.4815 6.93031 47.2489 6.82031 47.9067 6.82031C48.8933 6.82031 49.5511 7.04031 50.0993 7.37031C50.5378 7.70031 50.757 8.14031 50.757 8.80031C50.757 9.57031 50.2089 10.2303 49.4415 10.5603C50.2089 10.7803 51.0859 11.3303 51.0859 12.5403C51.0859 13.2003 50.8667 13.7503 50.4282 14.0803C49.88 14.6303 49.003 14.8503 47.6874 14.8503C47.0296 14.8503 46.4815 14.8503 46.1526 14.7403L46.043 7.04031ZM47.0296 10.3403H47.9067C49.003 10.3403 49.6607 9.79031 49.6607 9.02031C49.6607 8.14031 49.003 7.70031 47.9067 7.70031C47.4682 7.70031 47.1393 7.70031 47.0296 7.81031V10.3403ZM47.0296 14.1903C47.2489 14.1903 47.5778 14.1903 47.9067 14.1903C49.003 14.1903 49.9896 13.7503 49.9896 12.6503C49.9896 11.5503 49.1126 11.1103 47.9067 11.1103H47.0296V14.1903Z" fill="white"/>
<path d="M55.4693 14.9589L55.3597 14.1889C55.0308 14.6289 54.4827 15.0689 53.6056 15.0689C52.3997 15.0689 51.8516 14.2989 51.8516 13.4189C51.8516 11.9889 53.0575 11.3289 55.2501 11.3289V11.2189C55.2501 10.7789 55.1404 9.89891 53.9345 9.89891C53.3864 9.89891 52.8382 10.1189 52.3997 10.3389L52.1805 9.67891C52.619 9.34891 53.3864 9.12891 54.0442 9.12891C55.7982 9.12891 56.2367 10.3389 56.2367 11.4389V13.5289C56.2367 14.0789 56.2367 14.5189 56.3464 14.8489H55.4693V14.9589ZM55.3597 11.9889C54.2634 11.9889 52.9479 12.2089 52.9479 13.3089C52.9479 13.9689 53.3864 14.2989 53.9345 14.2989C54.7019 14.2989 55.1404 13.8589 55.3597 13.3089C55.3597 13.1989 55.4693 13.0889 55.4693 12.9789L55.3597 11.9889Z" fill="white"/>
<path d="M59.1984 7.58969C59.1984 7.91969 58.9791 8.24969 58.5406 8.24969C58.2117 8.24969 57.8828 7.91969 57.8828 7.58969C57.8828 7.25969 58.1021 6.92969 58.5406 6.92969C58.8695 6.92969 59.1984 7.25969 59.1984 7.58969ZM57.9924 14.9597V9.23969H59.0887V14.9597H57.9924Z" fill="white"/>
<path d="M61.2809 9.23891L62.0483 10.4489C62.2676 10.7789 62.4868 11.1089 62.5965 11.3289C62.8157 10.9989 62.9254 10.6689 63.1446 10.3389L63.912 9.12891H65.0083L63.035 11.8789L65.0083 14.8489H63.8024L62.9254 13.5289C62.7061 13.1989 62.4868 12.8689 62.2676 12.5389C62.0483 12.8689 61.8291 13.1989 61.7194 13.5289L60.8424 14.8489H59.7461L61.7194 11.9889L59.7461 9.23891H61.2809Z" fill="white"/>
<path d="M69.3951 14.9589L69.2855 14.1889C68.9566 14.6289 68.4085 15.0689 67.5314 15.0689C66.3255 15.0689 65.7773 14.2989 65.7773 13.4189C65.7773 11.9889 66.9833 11.3289 69.1759 11.3289V11.2189C69.1759 10.6689 69.0662 9.89891 67.8603 9.89891C67.3122 9.89891 66.764 10.1189 66.3255 10.3389L66.1062 9.67891C66.5448 9.34891 67.3122 9.12891 67.9699 9.12891C69.724 9.12891 70.1625 10.3389 70.1625 11.4389V13.5289C70.1625 14.0789 70.1625 14.5189 70.2722 14.8489H69.3951V14.9589ZM69.1759 11.9889C68.0796 11.9889 66.764 12.2089 66.764 13.3089C66.764 13.9689 67.2025 14.2989 67.7507 14.2989C68.5181 14.2989 68.9566 13.8589 69.1759 13.3089C69.1759 13.1989 69.2855 13.0889 69.2855 12.9789V11.9889H69.1759Z" fill="white"/>
<path d="M71.9141 10.9989C71.9141 10.3389 71.9141 9.78891 71.9141 9.23891H72.7911V10.3389C73.0104 9.56891 73.6681 9.12891 74.3259 9.12891C74.4355 9.12891 74.5452 9.12891 74.6548 9.12891V10.1189C74.5452 10.1189 74.4355 10.1189 74.3259 10.1189C73.5585 10.1189 73.12 10.6689 72.9007 11.4389C72.9007 11.5489 72.9007 11.7689 72.9007 11.8789V14.9589H71.9141V10.9989Z" fill="white"/>
<path d="M78.2734 10.7789C78.2734 10.2289 78.2734 9.67891 78.2734 9.23891H79.1505L79.2601 10.2289C79.589 9.67891 80.2468 9.12891 81.1238 9.12891C81.8912 9.12891 83.0971 9.56891 83.0971 11.5489V14.9589H82.1105V11.6589C82.1105 10.7789 81.7816 10.0089 80.7949 10.0089C80.1371 10.0089 79.589 10.4489 79.3697 11.1089C79.3697 11.2189 79.2601 11.4389 79.2601 11.5489V14.9589H78.2734V10.7789Z" fill="white"/>
<path d="M87.9225 14.9589L87.8128 14.1889C87.4839 14.6289 86.9358 15.0689 86.0588 15.0689C84.8528 15.0689 84.3047 14.2989 84.3047 13.4189C84.3047 11.9889 85.5106 11.3289 87.7032 11.3289V11.2189C87.7032 10.6689 87.5936 9.89891 86.3877 9.89891C85.8395 9.89891 85.2914 10.1189 84.8528 10.3389L84.6336 9.67891C85.0721 9.34891 85.8395 9.12891 86.4973 9.12891C88.2514 9.12891 88.6899 10.3389 88.6899 11.4389V13.5289C88.6899 14.0789 88.6899 14.5189 88.7995 14.8489H87.9225V14.9589ZM87.7032 11.9889C86.6069 11.9889 85.2914 12.2089 85.2914 13.3089C85.2914 13.9689 85.7299 14.2989 86.278 14.2989C87.0454 14.2989 87.4839 13.8589 87.7032 13.3089C87.7032 13.1989 87.8128 13.0889 87.8128 12.9789V11.9889H87.7032Z" fill="white"/>
</g>
<defs>
<linearGradient id="paint0_linear" x1="23.7761" y1="34.4139" x2="-4.26326" y2="5.6187" gradientUnits="userSpaceOnUse">
<stop stop-color="#00A0FF"/>
<stop offset="0.0066" stop-color="#00A1FF"/>
<stop offset="0.2601" stop-color="#00BEFF"/>
<stop offset="0.5122" stop-color="#00D2FF"/>
<stop offset="0.7604" stop-color="#00DFFF"/>
<stop offset="1" stop-color="#00E3FF"/>
</linearGradient>
<linearGradient id="paint1_linear" x1="36.9075" y1="22.1426" x2="-4.62416" y2="22.1426" gradientUnits="userSpaceOnUse">
<stop stop-color="#FFE000"/>
<stop offset="0.4087" stop-color="#FFBD00"/>
<stop offset="0.7754" stop-color="#FFA500"/>
<stop offset="1" stop-color="#FF9C00"/>
</linearGradient>
<linearGradient id="paint2_linear" x1="17.9021" y1="28.7634" x2="-20.1215" y2="-10.2852" gradientUnits="userSpaceOnUse">
<stop stop-color="#FF3A44"/>
<stop offset="1" stop-color="#C31162"/>
</linearGradient>
<linearGradient id="paint3_linear" x1="-1.2993" y1="34.5734" x2="15.6799" y2="17.1366" gradientUnits="userSpaceOnUse">
<stop stop-color="#32A071"/>
<stop offset="0.0685" stop-color="#2DA771"/>
<stop offset="0.4762" stop-color="#15CF74"/>
<stop offset="0.8009" stop-color="#06E775"/>
<stop offset="1" stop-color="#00F076"/>
</linearGradient>
<clipPath id="clip0">
<rect width="148" height="44" fill="white"/>
</clipPath>
</defs>
</svg>
