<svg width="173" height="98" viewBox="0 0 173 98" fill="none" xmlns="http://www.w3.org/2000/svg">
<path d="M119.513 34.8408C114.989 34.8408 112.053 36.5134 109.276 40.8939C107.292 36.1948 103.641 34.9205 100.308 34.9205C97.6894 34.9205 94.1183 35.7966 92.2137 39.301L91.8169 36.7523C91.7375 36.1152 91.182 35.6373 90.5472 35.6373H85.1508C84.4366 35.6373 83.8018 36.1948 83.8018 36.9913V66.5399C83.8018 67.2568 84.3573 67.8939 85.1508 67.8939H91.4201C92.1343 67.8939 92.7692 67.3364 92.7692 66.5399V50.6107C92.7692 46.947 94.6738 43.5222 98.1655 43.5222C101.816 43.5222 103.562 46.3098 103.562 50.5311V66.4603C103.562 67.1771 104.117 67.8143 104.911 67.8143H111.101C111.815 67.8143 112.45 67.2567 112.45 66.4603V50.5311C112.45 46.8674 114.037 43.6815 117.608 43.6815C121.179 43.6815 122.766 46.3895 122.766 50.3718V66.4603C122.766 67.1771 123.322 67.8143 124.116 67.8143H130.464C131.178 67.8143 131.813 67.2567 131.813 66.4603V50.2125C131.734 38.2656 125.861 34.8408 119.513 34.8408Z" fill="white"/>
<path d="M62.534 34.6816C58.7248 34.6816 55.1537 35.8763 52.3762 39.3011V21.54C52.3762 20.8232 51.7413 20.186 51.0271 20.186H44.2024C43.4088 20.186 42.8533 20.7436 42.8533 21.54V66.54C42.8533 67.2568 43.4881 67.894 44.2024 67.894H50.1542C50.7891 67.894 51.4239 67.4161 51.5033 66.779L51.9001 63.7524C54.9157 67.6551 58.5661 68.5312 62.6927 68.5312C72.2157 68.5312 78.723 61.7613 78.723 51.6462C78.6436 41.0533 71.9776 34.6816 62.534 34.6816ZM61.5024 59.9294C56.8996 59.9294 53.1698 56.186 53.1698 51.5666C53.1698 46.9471 56.8996 43.2037 61.5024 43.2037C66.1051 43.2037 69.8349 46.9471 69.8349 51.5666C69.8349 56.186 66.1051 59.9294 61.5024 59.9294Z" fill="white"/>
<path d="M113.323 19.6283C111.974 19.6283 111.022 20.2655 110.466 20.9823V18.4336V17.9558V17.2389C110.466 17.0796 110.387 17 110.228 17H109.514H109.355H108.72C108.562 17 108.482 17.0796 108.482 17.2389V18.354V26.7168V27.7522V28.469C108.482 28.6283 108.562 28.708 108.72 28.708H110.149C110.307 28.708 110.387 28.6283 110.387 28.469V27.7522V27.354C110.942 28.2301 111.974 28.7876 113.402 28.7876C116.021 28.7876 117.529 26.7168 117.529 24.2478C117.45 21.6991 115.942 19.6283 113.323 19.6283ZM112.926 26.9558C111.339 26.9558 110.466 25.7611 110.466 24.1681C110.466 22.5752 111.418 21.3805 112.926 21.3805C114.434 21.3805 115.386 22.5752 115.386 24.1681C115.386 25.7611 114.434 26.9558 112.926 26.9558Z" fill="white"/>
<path d="M134.829 19.6284C133.401 19.6284 132.448 20.2656 132.131 20.9824V20.1063C132.131 19.947 132.052 19.8674 131.893 19.8674H131.258H131.179H131.099H130.464C130.306 19.8674 130.226 19.947 130.226 20.1063V20.8231V21.2213V27.3541V27.832V28.4691C130.226 28.6284 130.306 28.7081 130.464 28.7081H131.179H131.337H132.052C132.21 28.7081 132.29 28.6284 132.29 28.4691V27.832V23.5311C132.29 22.1771 133.083 21.3806 134.432 21.3806C135.385 21.3806 136.178 22.1771 136.178 23.1328V27.832V28.4691C136.178 28.6284 136.258 28.7081 136.416 28.7081H137.13H137.289H138.003C138.162 28.7081 138.241 28.6284 138.241 28.4691V27.832V27.3541V23.0532C138.162 21.062 136.972 19.6284 134.829 19.6284Z" fill="white"/>
<path d="M144.352 21.3806C145.384 21.3806 146.098 21.9382 146.415 22.7346C146.415 22.7346 146.415 22.7346 146.415 22.8143C146.415 22.8939 146.574 22.9736 146.653 22.9736H146.733H147.13H148.161C148.32 22.9736 148.399 22.8939 148.399 22.7346C148.399 22.7346 148.399 22.2567 148.002 21.5399C148.002 21.5399 148.002 21.5399 148.002 21.4603C148.002 21.4603 148.002 21.3806 147.923 21.3806C147.447 20.6638 146.733 20.2656 146.733 20.2656C146.098 19.8674 145.304 19.6284 144.352 19.6284C141.733 19.6284 139.908 21.6992 139.908 24.1682C139.908 26.7169 141.733 28.7081 144.352 28.7081C145.304 28.7081 146.098 28.4691 146.733 28.0709C146.733 28.0709 147.447 27.6727 147.923 26.9559C147.923 26.9559 147.923 26.8762 148.002 26.8762C148.002 26.8762 148.002 26.7966 148.082 26.7966C148.082 26.7966 148.082 26.7966 148.082 26.7169C148.479 26.0797 148.479 25.6019 148.479 25.6019C148.479 25.4426 148.399 25.3629 148.241 25.3629H146.733C146.653 25.3629 146.495 25.4426 146.495 25.5222C146.177 26.3187 145.463 26.8762 144.431 26.8762C143.003 26.8762 142.051 25.6815 142.051 24.0886C141.971 22.5753 142.844 21.3806 144.352 21.3806Z" fill="white"/>
<path d="M154.43 19.6284C151.653 19.6284 149.828 21.7789 149.828 24.1682C149.828 26.5576 151.574 28.7081 154.43 28.7081C157.287 28.7081 159.033 26.6373 159.033 24.1682C159.033 21.6992 157.208 19.6284 154.43 19.6284ZM154.43 26.9559C153.002 26.9559 151.891 25.8408 151.891 24.1682C151.891 22.4957 153.002 21.3806 154.43 21.3806C155.938 21.3806 156.97 22.4957 156.97 24.1682C156.97 25.9205 155.859 26.9559 154.43 26.9559Z" fill="white"/>
<path d="M127.528 19.8673H126.179C126.02 19.8673 125.941 19.9469 125.941 20.1062V21.1416C125.385 20.2655 124.354 19.708 122.925 19.708C120.306 19.708 118.799 21.7788 118.799 24.2478C118.799 26.7169 120.306 28.7877 122.925 28.7877C124.274 28.7877 125.306 28.2301 125.941 27.354V27.5133V28.5487C125.941 28.708 126.02 28.7877 126.179 28.7877H127.607C127.766 28.7877 127.845 28.708 127.845 28.5487V27.8319V27.4337V21.1416V20.7434V20.1062C127.766 19.9469 127.687 19.8673 127.528 19.8673ZM123.322 26.9558C121.814 26.9558 120.862 25.7611 120.862 24.1682C120.862 22.5753 121.814 21.3806 123.322 21.3806C124.909 21.3806 125.782 22.5753 125.782 24.1682C125.861 25.7611 124.909 26.9558 123.322 26.9558Z" fill="white"/>
<path d="M15.9509 37.9468C15.9509 36.3539 17.3794 35.0795 18.9665 35.3185C27.4578 36.5928 33.9651 43.9202 33.9651 52.8406C33.9651 66.699 22.8551 69.7255 18.0936 70.3627C16.9032 70.522 15.9509 69.5662 15.9509 68.4512C15.9509 68.3716 15.9509 45.991 15.9509 37.9468Z" fill="#FA6300"/>
<path d="M1.98394 53.9557H9.84037C13.1734 53.9557 15.8716 51.2477 15.8716 47.9026V20.5043C15.8716 19.3893 14.9986 18.5132 13.8876 18.5132H10.3165C4.60275 18.5132 0 23.1327 0 28.8672V51.8849C0 52.9999 0.872936 53.9557 1.98394 53.9557Z" fill="white"/>
<path d="M165.302 63.5132C170.143 61.0442 172.286 56.584 172.444 51.8052C172.444 47.8229 171.413 44.5574 169.667 41.9291L172.682 38.4247C173.159 37.8672 173.079 36.9114 172.444 36.4335L167.604 32.6902C166.969 32.2123 166.096 32.3716 165.699 32.9291L163.08 36.3539C160.541 35.1592 157.684 34.6017 154.827 34.6017C145.542 34.6017 136.892 40.2566 136.892 51.5663C136.892 61.9203 143.955 68.3716 154.827 68.3716C160.779 68.3716 162.921 70.8406 162.921 74.1061C162.921 78.2477 159.033 80.2389 154.748 80.2389C150.621 80.2389 147.288 78.8849 146.574 74.584C146.494 73.9468 145.86 73.4689 145.225 73.4689H138.797C138.003 73.4689 137.368 74.1061 137.448 74.9026C137.924 83.584 143.876 88.761 154.748 88.761C163.874 88.761 172.762 83.9822 172.762 74.0265C172.682 72.3539 172.682 66.8583 165.302 63.5132ZM154.668 59.8495C150.065 59.8495 146.336 56.1061 146.336 51.4866C146.336 46.8672 150.065 43.1238 154.668 43.1238C159.271 43.1238 163.001 46.8672 163.001 51.4866C163.001 56.1061 159.271 59.8495 154.668 59.8495Z" fill="white"/>
</svg>
